<svg width="54" height="24" viewBox="0 0 54 24" fill="none" xmlns="http://www.w3.org/2000/svg">
<g clip-path="url(#clip0_257_825)">
<path d="M1.2832 6.94167V8.97655H17.5623V6.94167L9.42274 3.1626L1.2832 6.94167Z" fill="#B9C6D6"/>
<path d="M2.44531 10.1395V9.55811H5.93368V10.1395H5.35229V16.8255H5.93368V17.4069H2.44531V16.8255H3.02671V10.1395H2.44531Z" fill="#B9C6D6"/>
<path d="M7.67773 10.1395V9.55811H11.1661V10.1395H10.5847V16.8255H11.1661V17.4069H7.67773V16.8255H8.25913V10.1395H7.67773Z" fill="#B9C6D6"/>
<path d="M13.2012 10.1395V9.55811H16.6895V10.1395H16.1081V16.8255H16.6895V17.4069H13.2012V16.8255H13.7826V10.1395H13.2012Z" fill="#B9C6D6"/>
<path d="M1.57227 18.1489H17.5606V18.8602H1.57227V18.1489Z" fill="#B9C6D6"/>
<path d="M0.410156 19.4419H18.4334V20.6047H0.410156V19.4419Z" fill="#B9C6D6"/>
<path d="M22.3389 11.4883V7.25995H23.9576C24.2631 7.25995 24.5171 7.30813 24.7194 7.40447C24.9231 7.49945 25.0752 7.62952 25.1757 7.79469C25.2776 7.95986 25.3285 8.14705 25.3285 8.35626C25.3285 8.52831 25.2955 8.67559 25.2294 8.79809C25.1633 8.91921 25.0745 9.01763 24.9631 9.09333C24.8516 9.16903 24.727 9.2234 24.5894 9.25643V9.29773C24.7394 9.30598 24.8832 9.35209 25.0209 9.43605C25.1599 9.51864 25.2734 9.63563 25.3615 9.78704C25.4496 9.93844 25.4937 10.1215 25.4937 10.3362C25.4937 10.5551 25.4407 10.7519 25.3347 10.9267C25.2287 11.1001 25.069 11.2371 24.8557 11.3376C24.6423 11.438 24.3739 11.4883 24.0505 11.4883H22.3389ZM23.1049 10.8483H23.9287C24.2067 10.8483 24.407 10.7953 24.5295 10.6893C24.6534 10.5819 24.7153 10.4443 24.7153 10.2764C24.7153 10.1511 24.6843 10.0382 24.6224 9.93776C24.5605 9.8359 24.4724 9.75607 24.3581 9.69826C24.2439 9.63908 24.1076 9.60948 23.9493 9.60948H23.1049V10.8483ZM23.1049 9.05823H23.8626C23.9947 9.05823 24.1138 9.03414 24.2198 8.98597C24.3258 8.93642 24.409 8.86691 24.4696 8.77744C24.5315 8.6866 24.5625 8.57924 24.5625 8.45536C24.5625 8.29157 24.5047 8.15668 24.3891 8.0507C24.2748 7.94471 24.1049 7.89172 23.8791 7.89172H23.1049V9.05823ZM26.7902 11.4883H25.9726L27.4612 7.25995H28.4068L29.8975 11.4883H29.0799L27.9505 8.12709H27.9175L26.7902 11.4883ZM26.8171 9.8304H29.0468V10.4457H26.8171V9.8304ZM34.0163 7.25995V11.4883H33.335L31.3427 8.60814H31.3076V11.4883H30.5416V7.25995H31.2271L33.2173 10.1422H33.2545V7.25995H34.0163ZM34.9382 11.4883V7.25995H35.7041V9.20275H35.7558L37.4054 7.25995H38.3407L36.7055 9.15733L38.3551 11.4883H37.4343L36.1728 9.67555L35.7041 10.2289V11.4883H34.9382ZM22.1531 14.902V14.26H25.5267V14.902H24.2198V18.4883H23.46V14.902H22.1531ZM26.2643 18.4883V14.26H27.8499C28.1747 14.26 28.4472 14.3164 28.6675 14.4292C28.8891 14.5421 29.0563 14.7004 29.1692 14.9041C29.2834 15.1064 29.3405 15.3425 29.3405 15.6123C29.3405 15.8834 29.2827 16.1188 29.1671 16.3184C29.0529 16.5166 28.8842 16.67 28.6613 16.7788C28.4383 16.8861 28.1644 16.9398 27.8396 16.9398H26.7102V16.3039H27.7363C27.9263 16.3039 28.0818 16.2778 28.2029 16.2255C28.3241 16.1718 28.4135 16.094 28.4713 15.9922C28.5305 15.8889 28.5601 15.7623 28.5601 15.6123C28.5601 15.4622 28.5305 15.3342 28.4713 15.2283C28.4121 15.1209 28.322 15.0397 28.2009 14.9846C28.0797 14.9282 27.9235 14.9 27.7322 14.9H27.0302V18.4883H26.2643ZM28.4486 16.5723L29.4954 18.4883H28.6406L27.6124 16.5723H28.4486ZM30.6758 18.4883H29.8582L31.3468 14.26H32.2924L33.783 18.4883H32.9655L31.8361 15.1271H31.8031L30.6758 18.4883ZM30.7026 16.8304H32.9324V17.4457H30.7026V16.8304ZM37.9019 14.26V18.4883H37.2206L35.2283 15.6081H35.1932V18.4883H34.4272V14.26H35.1126L37.1029 17.1422H37.1401V14.26H37.9019ZM41.1217 15.4223C41.1024 15.242 41.0212 15.1016 40.878 15.0011C40.7363 14.9007 40.5518 14.8504 40.3247 14.8504C40.1651 14.8504 40.0281 14.8745 39.9139 14.9227C39.7996 14.9709 39.7122 15.0362 39.6517 15.1188C39.5911 15.2014 39.5601 15.2957 39.5588 15.4017C39.5588 15.4898 39.5787 15.5662 39.6186 15.6309C39.6599 15.6955 39.7157 15.7506 39.7859 15.796C39.8561 15.8401 39.9338 15.8772 40.0192 15.9075C40.1045 15.9378 40.1905 15.9633 40.2772 15.9839L40.6737 16.083C40.8333 16.1202 40.9868 16.1704 41.1341 16.2337C41.2827 16.297 41.4155 16.3769 41.5325 16.4732C41.6509 16.5696 41.7445 16.6859 41.8133 16.8221C41.8821 16.9584 41.9165 17.1181 41.9165 17.3011C41.9165 17.5489 41.8532 17.767 41.7266 17.9556C41.6 18.1428 41.4169 18.2894 41.1774 18.3954C40.9393 18.5 40.6509 18.5523 40.3123 18.5523C39.9834 18.5523 39.6978 18.5014 39.4555 18.3995C39.2147 18.2976 39.0261 18.149 38.8898 17.9535C38.7549 17.7581 38.682 17.52 38.671 17.2392H39.4246C39.4356 17.3865 39.481 17.509 39.5608 17.6067C39.6407 17.7044 39.7446 17.7774 39.8726 17.8255C40.002 17.8737 40.1465 17.8978 40.3061 17.8978C40.4727 17.8978 40.6186 17.873 40.7438 17.8235C40.8705 17.7725 40.9696 17.7024 41.0412 17.6129C41.1127 17.522 41.1492 17.4161 41.1506 17.2949C41.1492 17.1848 41.1169 17.094 41.0535 17.0224C40.9902 16.9495 40.9014 16.8889 40.7872 16.8407C40.6743 16.7912 40.5422 16.7471 40.3908 16.7086L39.9097 16.5847C39.5615 16.4952 39.2862 16.3597 39.0839 16.178C38.8829 15.9949 38.7825 15.752 38.7825 15.4492C38.7825 15.2 38.8499 14.9819 38.9848 14.7947C39.1211 14.6075 39.3062 14.4623 39.5402 14.3591C39.7742 14.2544 40.0391 14.2021 40.3351 14.2021C40.6351 14.2021 40.898 14.2544 41.1237 14.3591C41.3508 14.4623 41.5291 14.6061 41.6585 14.7906C41.7879 14.9736 41.8546 15.1842 41.8587 15.4223H41.1217ZM42.6866 18.4883V14.26H45.3954V14.902H43.4526V16.05H45.2096V16.6921H43.4526V18.4883H42.6866ZM46.1805 18.4883V14.26H48.9305V14.902H46.9464V16.05H48.7881V16.6921H46.9464V17.8462H48.947V18.4883H46.1805ZM49.7992 18.4883V14.26H51.3848C51.7096 14.26 51.9822 14.3164 52.2024 14.4292C52.424 14.5421 52.5912 14.7004 52.7041 14.9041C52.8183 15.1064 52.8755 15.3425 52.8755 15.6123C52.8755 15.8834 52.8176 16.1188 52.702 16.3184C52.5878 16.5166 52.4192 16.67 52.1962 16.7788C51.9732 16.8861 51.6993 16.9398 51.3745 16.9398H50.2451V16.3039H51.2713C51.4612 16.3039 51.6167 16.2778 51.7379 16.2255C51.859 16.1718 51.9484 16.094 52.0063 15.9922C52.0654 15.8889 52.095 15.7623 52.095 15.6123C52.095 15.4622 52.0654 15.3342 52.0063 15.2283C51.9471 15.1209 51.8569 15.0397 51.7358 14.9846C51.6147 14.9282 51.4584 14.9 51.2671 14.9H50.5652V18.4883H49.7992ZM51.9835 16.5723L53.0303 18.4883H52.1756L51.1474 16.5723H51.9835Z" fill="#B9C6D6"/>
</g>
<defs>
<clipPath id="clip0_257_825">
<rect width="53.4884" height="23.2558" fill="white" transform="translate(0.216797 0.255859)"/>
</clipPath>
</defs>
</svg>
