<svg width="15" height="11" viewBox="0 0 15 11" fill="none" xmlns="http://www.w3.org/2000/svg">
<path d="M14.8996 5.6424C14.4197 4.84947 11.7808 0.870559 7.29758 0.999141C3.15173 1.09915 0.752682 4.57088 0.100441 5.6424C0.034641 5.75099 0 5.87418 0 5.99957C0 6.12496 0.034641 6.24815 0.100441 6.35674C0.572753 7.13538 3.09925 11 7.51499 11H7.70242C11.8483 10.9 14.2548 7.42827 14.8996 6.35674C14.9654 6.24815 15 6.12496 15 5.99957C15 5.87418 14.9654 5.75099 14.8996 5.6424ZM7.66493 9.57131C4.43372 9.64274 2.32706 7.0068 1.66732 5.99957C2.41702 4.84947 4.37374 2.49927 7.37255 2.42784C10.5888 2.34926 12.7029 4.99234 13.3702 5.99957C12.598 7.14967 10.6637 9.49987 7.66493 9.57131Z" fill="#657083"/>
<path d="M7.50091 3.49902C6.98194 3.49902 6.47463 3.64566 6.04312 3.92039C5.61161 4.19511 5.27529 4.58559 5.07669 5.04245C4.87809 5.4993 4.82613 6.00201 4.92737 6.48701C5.02862 6.972 5.27853 7.4175 5.64549 7.76716C6.01246 8.11682 6.48 8.35494 6.989 8.45141C7.498 8.54788 8.02559 8.49837 8.50506 8.30914C8.98452 8.1199 9.39433 7.79944 9.68265 7.38828C9.97098 6.97713 10.1249 6.49373 10.1249 5.99924C10.1249 5.33614 9.84842 4.7002 9.35633 4.23132C8.86424 3.76244 8.19683 3.49902 7.50091 3.49902ZM7.50091 7.07076C7.2785 7.07076 7.06108 7.00792 6.87614 6.89018C6.69121 6.77244 6.54707 6.60509 6.46196 6.40929C6.37685 6.2135 6.35458 5.99805 6.39797 5.79019C6.44136 5.58234 6.54846 5.39141 6.70573 5.24156C6.863 5.0917 7.06338 4.98965 7.28152 4.94831C7.49966 4.90696 7.72577 4.92818 7.93126 5.00928C8.13674 5.09038 8.31238 5.22772 8.43594 5.40393C8.55951 5.58014 8.62546 5.78731 8.62546 5.99924C8.62546 6.28342 8.50699 6.55597 8.29609 6.75692C8.0852 6.95787 7.79916 7.07076 7.50091 7.07076Z" fill="#657083"/>
</svg>
