<svg width="39" height="24" viewBox="0 0 39 24" fill="none" xmlns="http://www.w3.org/2000/svg">
<g clip-path="url(#clip0_257_841)">
<rect x="0.921875" y="8.04248" width="3.34715" height="12.7192" fill="#B9C6D6"/>
<rect x="28.3691" y="8.04248" width="3.34715" height="12.7192" fill="#B9C6D6"/>
<ellipse cx="2.59545" cy="5.36473" rx="1.67357" ry="2.00829" fill="#B9C6D6"/>
<ellipse cx="30.0427" cy="5.36473" rx="1.67357" ry="2.00829" fill="#B9C6D6"/>
<path d="M36.0671 8.37717H38.4101V10.7202H36.0671V16.745C36.0671 16.8566 36.1341 17.1467 36.4018 17.4145C36.6696 17.6822 37.0713 17.7492 37.7407 17.7492V20.7616C37.406 20.7616 35.4634 20.9618 34.3935 20.4269C33.4224 19.9413 33.0547 18.4186 33.0547 17.4145V4.69531H36.0671V8.37717Z" fill="#B9C6D6"/>
<path fill-rule="evenodd" clip-rule="evenodd" d="M23.0132 3.35645H19.666V20.7616H23.0132V19.8553C23.5038 20.4111 24.2216 20.7616 25.0213 20.7616C26.5002 20.7616 27.699 19.5628 27.699 18.0839V10.0507C27.699 8.57188 26.5002 7.37303 25.0213 7.37303C24.2216 7.37303 23.5038 7.72357 23.0132 8.27939V3.35645ZM23.0132 10.1633V17.9713C23.1653 18.0435 23.3354 18.0839 23.5149 18.0839C24.1619 18.0839 24.6864 17.5594 24.6864 16.9124V11.2222C24.6864 10.5752 24.1619 10.0507 23.5149 10.0507C23.3354 10.0507 23.1653 10.0911 23.0132 10.1633Z" fill="#B9C6D6"/>
<path fill-rule="evenodd" clip-rule="evenodd" d="M5.60938 20.7614C7.69289 20.5529 9.67375 19.3293 10.1674 17.2944C10.2463 16.9695 10.295 16.6655 10.295 16.4101V12.0588V7.70755C10.295 7.20349 10.1798 6.62731 10.0161 6.0628C9.52342 4.3643 7.76547 3.47275 6.00595 3.6508L5.92475 3.65902C5.81989 3.66963 5.71466 3.67543 5.60938 3.67643V6.72589C6.03907 6.7732 6.75223 6.91967 6.94788 7.37277C7.14948 7.83964 7.2826 8.54671 7.2826 9.04634V12.0588V15.0712C7.2826 15.574 7.15114 16.2759 6.94788 16.7448C6.75273 17.1949 6.03923 17.4996 5.60938 17.6469V20.7614Z" fill="#B9C6D6"/>
<path fill-rule="evenodd" clip-rule="evenodd" d="M10.9629 11.3896C10.9629 9.17133 12.7612 7.37305 14.9795 7.37305C17.1978 7.37305 18.996 9.17133 18.996 11.3896V15.0716H13.9753L13.9753 17.0799C13.9753 17.7493 14.5516 18.084 14.9795 18.084C15.9836 18.084 15.9837 17.0799 15.9836 16.7452H18.996C18.996 18.9634 17.1977 20.7616 14.9795 20.7616C12.7612 20.7616 10.9629 18.9633 10.9629 16.7451V11.3896ZM14.9795 10.0509C15.9836 10.0509 15.9837 11.055 15.9836 11.3897V13.0633H13.9753L13.9753 11.055C13.9753 10.3856 14.5516 10.0509 14.9795 10.0509Z" fill="#B9C6D6"/>
</g>
<defs>
<clipPath id="clip0_257_841">
<rect width="37.2093" height="23.2558" fill="white" transform="translate(0.921875 0.255859)"/>
</clipPath>
</defs>
</svg>
