<svg width="103" height="52" viewBox="0 0 103 52" fill="none" xmlns="http://www.w3.org/2000/svg">
<path d="M75.2061 22.9049C73.8449 21.9208 72.1651 21.4307 70.4637 21.5212C69.1772 21.4706 67.8982 21.7312 66.7439 22.2789C65.8572 22.7283 65.0932 23.3716 64.5134 24.1569C63.9732 24.8873 63.5905 25.714 63.3879 26.5884C63.196 27.3905 63.0948 28.2102 63.0859 29.0331C63.093 29.8801 63.1943 30.7239 63.3879 31.5503C63.5904 32.4308 63.973 33.264 64.5134 34.0015C65.1072 34.7862 65.8856 35.4251 66.7851 35.8664C67.9696 36.4029 69.2718 36.6561 70.5804 36.6044C71.3149 36.6137 72.049 36.5697 72.7766 36.4726C73.3236 36.4009 73.8633 36.284 74.3894 36.1233C74.7972 35.9975 75.1923 35.8365 75.5699 35.6423L76.4964 35.1481L75.1238 31.4778C74.3559 31.8819 73.5402 32.1961 72.6942 32.4135C72.0693 32.5587 71.4292 32.6361 70.7863 32.6441C70.1819 32.6786 69.5863 32.4927 69.1186 32.1236C68.7579 31.8158 68.5161 31.4002 68.4322 30.944C68.4242 30.9073 68.4247 30.8692 68.4336 30.8326C68.4425 30.7961 68.4597 30.7618 68.4839 30.7323C68.5081 30.7027 68.5388 30.6786 68.5737 30.6617C68.6087 30.6448 68.6471 30.6355 68.6862 30.6343H76.6062L76.8464 28.6575C76.9053 28.1697 76.9351 27.6791 76.9356 27.1881C76.9494 25.2574 76.3728 23.8275 75.2061 22.9049ZM71.9462 27.6362H68.3979C68.3762 27.0361 68.5809 26.4488 68.9744 25.9822C69.1629 25.7858 69.3939 25.6315 69.6512 25.5302C69.9086 25.4288 70.1859 25.3829 70.4637 25.3957C70.8169 25.3841 71.1619 25.4992 71.4314 25.7186C71.6998 25.9411 71.8732 26.2508 71.9187 26.5884C71.9336 26.7639 71.9336 26.9402 71.9187 27.1156L71.9462 27.6362ZM60.3406 23.6825C59.8422 22.9935 59.169 22.4379 58.3847 22.0681C57.4209 21.6382 56.3651 21.4328 55.3031 21.4684C54.7998 21.4637 54.2983 21.5281 53.8138 21.6595C53.3734 21.7859 52.9479 21.9559 52.5442 22.1669V15.8477L51.6931 15.3271L47.191 16.0717V36.3408H50.0529C50.2038 36.2419 50.595 35.8927 50.8627 35.6818C50.9308 35.6321 51.014 35.6052 51.0995 35.6052C51.185 35.6052 51.2682 35.6321 51.3363 35.6818C51.8019 35.9736 52.311 36.1958 52.8461 36.3408C53.3991 36.4971 53.9718 36.5791 54.5482 36.5846C55.7438 36.6323 56.9341 36.4065 58.0209 35.9257C58.8878 35.5056 59.64 34.8962 60.2171 34.1465C60.7623 33.4221 61.1498 32.5996 61.3564 31.7282C61.5659 30.864 61.6718 29.9797 61.6721 29.0924C61.6767 28.0989 61.5755 27.1075 61.3701 26.1338C61.2029 25.2583 60.8527 24.4244 60.3406 23.6825ZM55.7904 31.7282C55.6558 32.0138 55.4325 32.2526 55.1512 32.4118C54.8699 32.571 54.5443 32.6429 54.2188 32.6178H52.7226C52.6753 32.6178 52.6299 32.5997 52.5964 32.5676C52.563 32.5354 52.5442 32.4919 52.5442 32.4464V25.7186C52.5442 25.6225 52.5839 25.5303 52.6547 25.4624C52.7255 25.3944 52.8215 25.3562 52.9216 25.3562H54.1158C54.4557 25.3437 54.7918 25.4285 55.0815 25.5998C55.3711 25.7711 55.6011 26.0212 55.7424 26.3183C56.1016 27.1869 56.2631 28.1193 56.2159 29.0529C56.2622 29.963 56.1175 30.8728 55.7904 31.7282ZM87.9097 31.9456C87.6306 32.0247 87.3424 32.0972 87.045 32.1631C86.7944 32.2292 86.5361 32.2646 86.2763 32.2685C86.151 32.2772 86.0252 32.2606 85.907 32.2197C85.7887 32.1789 85.6808 32.1147 85.59 32.0313C85.4244 31.8671 85.3 31.6688 85.2262 31.4514C85.1472 31.2055 85.101 30.9508 85.089 30.6936C85.089 30.4235 85.089 30.1665 85.089 29.9359V25.6593C85.0908 25.5923 85.1198 25.5286 85.1698 25.4818C85.2198 25.4351 85.2868 25.4089 85.3566 25.4089H88.2666V21.7847H85.3429C85.2749 21.783 85.2104 21.7559 85.1629 21.7091C85.1155 21.6623 85.089 21.5996 85.089 21.5343V18.7536H81.9388L80.9849 20.9479C80.922 21.0961 80.829 21.2308 80.7111 21.344C80.5932 21.4571 80.4529 21.5465 80.2985 21.6068L78.9259 22.1999C78.7818 22.2658 78.6308 22.3317 78.4661 22.391V25.4221H79.6122C79.6308 25.4221 79.6493 25.4257 79.6664 25.4327C79.6835 25.4398 79.699 25.4501 79.7118 25.463C79.7247 25.4759 79.7346 25.4913 79.7411 25.508C79.7476 25.5248 79.7504 25.5426 79.7495 25.5605V31.0099C79.7495 32.9868 80.1407 34.4167 80.9231 35.2931C81.3671 35.7497 81.9119 36.105 82.5175 36.333C83.1232 36.5611 83.7744 36.6561 84.4233 36.611C85.0227 36.5939 85.6206 36.5455 86.2145 36.466C87.1568 36.3286 88.0785 36.083 88.9598 35.7346L87.9097 31.9456Z" fill="white"/>
<path d="M44.1297 42.021C43.8689 42.278 43.6013 42.5284 43.3336 42.7722L43.2787 42.8183C42.7228 43.3125 42.1326 43.787 41.5286 44.2284C41.2335 44.4459 40.9315 44.6502 40.6227 44.8874L40.5403 44.9467C40.2315 45.1444 39.9227 45.3421 39.6069 45.5332C38.9618 45.9153 38.303 46.2646 37.6166 46.5875L37.5 46.6402C37.1774 46.7917 36.848 46.9433 36.5186 47.0751L36.4019 47.1278C35.7156 47.4046 35.0293 47.6549 34.3018 47.8724L34.1782 47.9119C33.8351 48.0174 33.4919 48.1096 33.1419 48.2019L32.9703 48.248C32.6203 48.3337 32.284 48.4127 31.9134 48.4852H31.7967C31.4536 48.5511 31.1104 48.617 30.7467 48.6697H30.6437C30.28 48.7224 29.9574 48.7686 29.5594 48.8081H29.3535C28.9966 48.8081 28.6329 48.8674 28.2691 48.8872H28.0907C27.7063 48.8872 27.3289 48.8872 26.9445 48.8872C20.5283 48.8872 14.3749 46.44 9.8379 42.0839C5.30094 37.7279 2.7521 31.8198 2.7521 25.6594C2.7521 19.499 5.30094 13.591 9.8379 9.23493C14.3749 4.87888 20.5283 2.43168 26.9445 2.43168C27.3289 2.43168 27.7063 2.43168 28.0907 2.43168H28.2691C28.6329 2.43168 28.9966 2.4778 29.3535 2.51075H29.5594C29.9231 2.55029 30.28 2.59641 30.6437 2.64913H30.7467L31.7967 2.83363H31.9134C32.2634 2.89953 32.5997 2.98519 32.9703 3.07085L33.1419 3.11039C33.4919 3.20264 33.8282 3.29489 34.1782 3.40032L34.3018 3.43986C35.0155 3.65951 35.7156 3.90991 36.4019 4.19105L36.5186 4.23718C36.848 4.37556 37.2049 4.52053 37.5 4.67208L37.6166 4.7248C38.303 5.04768 38.9893 5.38374 39.6069 5.7857C39.9227 5.9702 40.2315 6.16788 40.5403 6.37216L40.6227 6.42487C40.9315 6.62915 41.2335 6.84001 41.5286 7.05087C42.1326 7.49895 42.7228 7.9668 43.2787 8.4676L43.3336 8.51372L44.1297 9.25833C44.8929 10.065 45.5969 10.9215 46.2367 11.8216L48.6045 10.5762C47.8267 9.55242 46.9735 8.58348 46.0514 7.67686L45.9828 7.66368L45.1729 6.9059L45.0494 6.79388C44.768 6.54348 44.4797 6.30626 44.1846 6.06245L44.0199 5.93725C43.7248 5.69345 43.4228 5.46281 43.114 5.23218L43.0248 5.17288C42.7228 4.95543 42.414 4.73798 42.1051 4.51394L41.9953 4.44145C41.6727 4.23059 41.3502 4.02632 41.0207 3.82864L40.8354 3.7232C40.506 3.52552 40.1491 3.34102 39.8334 3.15651L39.7099 3.09721C39.3805 2.91929 39.0236 2.74797 38.6941 2.58982L38.5981 2.53711C38.2481 2.37237 37.9118 2.22081 37.5274 2.06926L37.3284 1.98359C36.9715 1.83863 36.6078 1.70025 36.244 1.56846L36.0862 1.51574C35.7224 1.38396 35.3587 1.26535 34.9949 1.15333H34.9057C34.5283 1.03472 34.1439 0.935875 33.7596 0.837033L33.5468 0.777728C33.1831 0.678887 32.8056 0.619582 32.4213 0.514151L32.2566 0.474615C31.8722 0.402131 31.481 0.329647 31.0898 0.270342H31.0349C30.5957 0.204448 30.1976 0.158322 29.7859 0.112196H29.5525C29.1613 0.0528908 28.7632 0.0199437 28.3583 0.000175393H28.1387C27.7201 0.000175393 27.2945 0.000175393 26.8759 0.000175393C22.4087 -0.0156691 18.0085 1.04223 14.0762 3.07744C13.3144 3.4794 12.5732 3.90771 11.8594 4.39533C8.21282 6.75409 5.22466 9.93585 3.15699 13.6616C1.08932 17.3873 0.0053065 21.5432 0 25.7649C0.00727025 32.6058 2.84138 39.1645 7.88021 44.0012C12.919 48.8378 19.7508 51.5573 26.8759 51.5625C27.2945 51.5625 27.7201 51.5625 28.1387 51.5625H28.3583C28.7632 51.5625 29.1613 51.5098 29.5525 51.4768H29.7859C30.1908 51.4373 30.5957 51.3846 31.0006 51.3253H31.0555C31.4467 51.266 31.8379 51.1935 32.2223 51.121L32.4213 51.0815C32.8056 51.0024 33.1831 50.9167 33.5674 50.8245L33.7802 50.7718C34.1645 50.6729 34.5488 50.5675 34.9263 50.4489H35.0155C35.377 50.339 35.7407 50.2204 36.1068 50.093L36.2646 50.0337C36.6284 49.9019 36.9921 49.7636 37.349 49.6186L37.548 49.5329C37.9049 49.388 38.2343 49.2298 38.6187 49.0651L38.7147 49.019C39.0579 48.8542 39.4011 48.6829 39.7305 48.5116L39.854 48.4457C40.1903 48.2678 40.5403 48.0767 40.856 47.879L41.0413 47.7736C41.3708 47.5759 41.7276 47.3782 42.0159 47.1673L42.1257 47.0883C42.4345 46.884 42.7434 46.6665 43.0454 46.4293L43.1346 46.37C43.4434 46.1394 43.7454 45.9088 44.0405 45.6715L44.2052 45.5397C44.5026 45.3025 44.7909 45.0587 45.07 44.8083L45.1935 44.6963C45.468 44.4525 45.7357 44.2021 46.0033 43.9451C46.0157 43.9266 46.0321 43.9108 46.0514 43.899C46.9718 42.9932 47.8249 42.0266 48.6045 41.0062L46.2367 39.7542C45.5859 40.5525 44.8821 41.3097 44.1297 42.021Z" fill="white"/>
<path d="M20.7472 14.2072H15.5175V18.9516H17.35C17.583 18.9516 17.8064 19.0405 17.9712 19.1986C18.1359 19.3568 18.2285 19.5714 18.2285 19.795V32.2491C18.2285 32.291 18.2111 32.3312 18.1802 32.3609C18.1493 32.3906 18.1074 32.4072 18.0637 32.4072H15.5175V37.2702H20.7472C20.764 37.2693 20.7808 37.2717 20.7966 37.2773C20.8124 37.2828 20.8268 37.2914 20.839 37.3025C20.8512 37.3136 20.861 37.327 20.8676 37.3419C20.8742 37.3567 20.8776 37.3727 20.8776 37.3888V43.0162H23.6778V8.40192H20.8776V14.0886C20.8776 14.1047 20.8742 14.1207 20.8676 14.1356C20.861 14.1504 20.8512 14.1638 20.839 14.1749C20.8268 14.186 20.8124 14.1946 20.7966 14.2001C20.7808 14.2057 20.764 14.2081 20.7472 14.2072Z" fill="url(#paint0_linear_375_3542)"/>
<path d="M40.2659 28.9939C40.124 28.4805 39.9141 27.9866 39.6413 27.5244C39.3531 27.0392 38.995 26.5956 38.5775 26.2066C38.2117 25.8525 37.7931 25.5527 37.3353 25.317C37.3111 25.3038 37.2909 25.2846 37.2769 25.2614C37.2628 25.2383 37.2554 25.212 37.2554 25.1852C37.2554 25.1584 37.2628 25.1321 37.2769 25.109C37.2909 25.0858 37.3111 25.0666 37.3353 25.0534C37.7075 24.8533 38.0493 24.6049 38.3511 24.3154C38.7141 23.9692 39.0258 23.5767 39.2776 23.1491C39.5139 22.7312 39.7004 22.2891 39.8335 21.8312C39.9545 21.417 40.0191 20.9895 40.0257 20.5594C40.0291 19.7434 39.8994 18.9318 39.6413 18.1543C39.4014 17.4037 38.9885 16.7145 38.4334 16.1379C37.8103 15.5246 37.0597 15.0441 36.2304 14.7278C35.2074 14.3559 34.1187 14.1791 33.0253 14.2072H31.7144C31.681 14.2073 31.6489 14.195 31.6246 14.1729C31.6003 14.1508 31.5858 14.1207 31.584 14.0886V8.40192H28.7839V14.0886C28.7839 14.1047 28.7805 14.1207 28.7739 14.1356C28.7673 14.1504 28.7575 14.1638 28.7453 14.1749C28.7331 14.186 28.7187 14.1946 28.7029 14.2001C28.6871 14.2057 28.6703 14.2081 28.6535 14.2072H27.5561C27.528 14.2059 27.4998 14.2105 27.4738 14.2207C27.4477 14.231 27.4242 14.2466 27.4051 14.2665L26.2171 15.6239C26.1654 15.6726 26.1358 15.7389 26.1347 15.8084V18.9516H31.5154C31.9001 18.9102 32.2896 18.9431 32.6608 19.0483C33.0321 19.1536 33.3777 19.329 33.6773 19.5644C34.0962 19.9944 34.325 20.5637 34.3156 21.1525C34.3176 21.4236 34.2571 21.6919 34.1384 21.9379C34.0198 22.184 33.8459 22.4018 33.6292 22.5758C33.019 22.9973 32.2711 23.1938 31.5223 23.1293H27.8642V27.6365H31.7762C32.1609 27.6005 32.5491 27.6475 32.9125 27.774C33.2758 27.9006 33.6051 28.1035 33.8763 28.3679C34.3125 28.8746 34.5418 29.5163 34.5215 30.1734C34.5363 30.49 34.4829 30.806 34.3649 31.1019C34.2468 31.3978 34.0665 31.6672 33.8351 31.8932C33.5539 32.1275 33.2272 32.3063 32.874 32.4194C32.5207 32.5325 32.1477 32.5776 31.7762 32.5522H26.1347V37.2636H28.6535C28.6703 37.2627 28.6871 37.2651 28.7029 37.2707C28.7187 37.2762 28.7331 37.2848 28.7453 37.2959C28.7575 37.3071 28.7673 37.3204 28.7739 37.3353C28.7805 37.3501 28.7839 37.3661 28.7839 37.3822V43.0755H31.5703V37.3822C31.5721 37.3502 31.5866 37.32 31.6109 37.2979C31.6351 37.2759 31.6673 37.2636 31.7007 37.2636H33.6292C34.6082 37.2647 35.5788 37.0903 36.4912 36.7497C37.3274 36.428 38.0779 35.9303 38.6874 35.2934C39.2977 34.6633 39.7651 33.9183 40.06 33.1057C40.3615 32.2281 40.5076 31.3082 40.4924 30.3843C40.4826 29.9131 40.4064 29.4454 40.2659 28.9939Z" fill="url(#paint1_linear_375_3542)"/>
<path d="M96.9336 22.4785C97.878 22.4785 98.7735 22.625 99.6201 22.9181C100.483 23.2111 101.216 23.61 101.818 24.1148L100.255 26.5082C99.2131 25.8569 98.1629 25.5313 97.1046 25.5313C96.6487 25.5313 96.3068 25.6046 96.0788 25.7511C95.8672 25.8814 95.7614 26.0686 95.7614 26.3128C95.7614 26.5245 95.8183 26.6954 95.9323 26.8257C96.0463 26.956 96.2824 27.1025 96.6406 27.2653C97.0151 27.4118 97.6012 27.6072 98.399 27.8515C99.7341 28.2422 100.719 28.7551 101.354 29.3901C101.989 30.0088 102.307 30.8799 102.307 32.0033C102.307 32.8825 102.046 33.6559 101.525 34.3235C101.02 34.9748 100.312 35.4795 99.4003 35.8377C98.5048 36.1959 97.4872 36.375 96.3475 36.375C95.2403 36.375 94.1983 36.204 93.2214 35.8621C92.2608 35.5039 91.4467 35.0155 90.7791 34.3968L92.855 32.0766C93.3598 32.4674 93.8971 32.7767 94.4669 33.0047C95.0531 33.2326 95.6392 33.3466 96.2254 33.3466C96.7464 33.3466 97.1453 33.2652 97.4221 33.1023C97.7152 32.9232 97.8617 32.6627 97.8617 32.3208C97.8617 32.0603 97.7966 31.8568 97.6663 31.7102C97.5524 31.5637 97.3244 31.4253 96.9825 31.2951C96.6406 31.1485 96.0544 30.9531 95.2241 30.7089C92.7004 29.96 91.4385 28.5841 91.4385 26.5815C91.4385 25.8162 91.6583 25.1243 92.0979 24.5055C92.5376 23.8706 93.1644 23.374 93.9785 23.0158C94.8089 22.6576 95.7939 22.4785 96.9336 22.4785Z" fill="white"/>
<defs>
<linearGradient id="paint0_linear_375_3542" x1="75.4953" y1="-7.61718" x2="11.5807" y2="23.2248" gradientUnits="userSpaceOnUse">
<stop stop-color="#FFB639"/>
<stop offset="1" stop-color="#E49100"/>
</linearGradient>
<linearGradient id="paint1_linear_375_3542" x1="75.4953" y1="-7.61718" x2="11.5807" y2="23.2248" gradientUnits="userSpaceOnUse">
<stop stop-color="#FFB639"/>
<stop offset="1" stop-color="#E49100"/>
</linearGradient>
</defs>
</svg>
