<svg width="50" height="51" viewBox="0 0 50 51" fill="none" xmlns="http://www.w3.org/2000/svg">
<path d="M48.972 25.0467C48.972 38.3137 38.2375 49.0654 25 49.0654C11.7625 49.0654 1.02804 38.3137 1.02804 25.0467C1.02804 11.7798 11.7625 1.02804 25 1.02804C38.2375 1.02804 48.972 11.7798 48.972 25.0467Z" stroke="white" stroke-width="2.05607"/>
<path d="M17.9933 14.0586H12.9902V18.5974H14.7433C14.9662 18.5974 15.1799 18.6825 15.3375 18.8338C15.4952 18.9851 15.5837 19.1903 15.5837 19.4043V31.3187C15.5837 31.3588 15.5671 31.3973 15.5375 31.4257C15.508 31.4541 15.4679 31.47 15.4261 31.47H12.9902V36.1223H17.9933C18.0094 36.1214 18.0254 36.1237 18.0406 36.1291C18.0557 36.1344 18.0695 36.1426 18.0812 36.1532C18.0928 36.1638 18.1021 36.1766 18.1085 36.1908C18.1148 36.205 18.1181 36.2203 18.1181 36.2358V41.6193H20.7969V8.50488H18.1181V13.9452C18.1181 13.9606 18.1148 13.9759 18.1085 13.9901C18.1021 14.0043 18.0928 14.0171 18.0812 14.0277C18.0695 14.0383 18.0557 14.0465 18.0406 14.0519C18.0254 14.0572 18.0094 14.0595 17.9933 14.0586Z" fill="url(#paint0_linear_345_2920)"/>
<path d="M36.6662 28.2046C36.5305 27.7134 36.3297 27.241 36.0687 26.7988C35.793 26.3346 35.4504 25.9102 35.051 25.538C34.7011 25.1993 34.3006 24.9125 33.8627 24.687C33.8394 24.6744 33.8202 24.656 33.8067 24.6339C33.7933 24.6117 33.7862 24.5866 33.7862 24.5609C33.7862 24.5353 33.7933 24.5101 33.8067 24.488C33.8202 24.4658 33.8394 24.4475 33.8627 24.4349C34.2187 24.2434 34.5457 24.0058 34.8344 23.7288C35.1817 23.3976 35.4799 23.0222 35.7208 22.613C35.9468 22.2133 36.1252 21.7904 36.2526 21.3522C36.3683 20.956 36.4301 20.5471 36.4364 20.1356C36.4397 19.3549 36.3157 18.5785 36.0687 17.8347C35.8392 17.1166 35.4442 16.4573 34.9132 15.9057C34.3171 15.3189 33.599 14.8593 32.8056 14.5566C31.827 14.2009 30.7854 14.0317 29.7394 14.0586H28.4853C28.4534 14.0587 28.4226 14.0469 28.3994 14.0258C28.3762 14.0047 28.3623 13.9758 28.3606 13.9452V8.50488H25.6818V13.9452C25.6818 13.9606 25.6785 13.9759 25.6722 13.9901C25.6658 14.0043 25.6565 14.0171 25.6449 14.0277C25.6332 14.0383 25.6194 14.0465 25.6043 14.0519C25.5892 14.0572 25.5731 14.0595 25.557 14.0586H24.5072C24.4803 14.0573 24.4534 14.0617 24.4284 14.0715C24.4034 14.0814 24.381 14.0963 24.3628 14.1154L23.2262 15.414C23.1767 15.4605 23.1484 15.524 23.1474 15.5905V18.5974H28.2949C28.663 18.5578 29.0355 18.5893 29.3907 18.69C29.7459 18.7907 30.0765 18.9585 30.3631 19.1837C30.7639 19.5951 30.9828 20.1397 30.9737 20.7029C30.9757 20.9623 30.9178 21.219 30.8043 21.4544C30.6908 21.6898 30.5244 21.8982 30.3172 22.0646C29.7333 22.4678 29.0178 22.6558 28.3015 22.5941H24.802V26.906H28.5444C28.9124 26.8716 29.2838 26.9165 29.6314 27.0376C29.979 27.1586 30.2941 27.3528 30.5535 27.6057C30.9708 28.0905 31.1901 28.7044 31.1707 29.333C31.1849 29.6358 31.1339 29.9382 31.0209 30.2213C30.9079 30.5044 30.7354 30.7621 30.5141 30.9783C30.245 31.2025 29.9326 31.3735 29.5946 31.4817C29.2566 31.5898 28.8998 31.633 28.5444 31.6087H23.1474V36.116H25.557C25.5731 36.1151 25.5892 36.1174 25.6043 36.1228C25.6194 36.1281 25.6332 36.1363 25.6449 36.1469C25.6565 36.1575 25.6658 36.1703 25.6722 36.1845C25.6785 36.1987 25.6818 36.214 25.6818 36.2295V41.676H28.3475V36.2295C28.3491 36.1988 28.363 36.1699 28.3862 36.1488C28.4094 36.1277 28.4402 36.116 28.4722 36.116H30.3172C31.2537 36.117 32.1822 35.9502 33.0551 35.6243C33.8551 35.3165 34.573 34.8405 35.1561 34.2311C35.74 33.6283 36.1872 32.9156 36.4692 32.1382C36.7577 31.2987 36.8975 30.4186 36.8829 29.5347C36.8735 29.084 36.8007 28.6365 36.6662 28.2046Z" fill="url(#paint1_linear_345_2920)"/>
<defs>
<linearGradient id="paint0_linear_345_2920" x1="30.6221" y1="3.6046" x2="12.767" y2="6.73254" gradientUnits="userSpaceOnUse">
<stop stop-color="#FFB639"/>
<stop offset="1" stop-color="#E49100"/>
</linearGradient>
<linearGradient id="paint1_linear_345_2920" x1="30.6221" y1="3.6046" x2="12.767" y2="6.73254" gradientUnits="userSpaceOnUse">
<stop stop-color="#FFB639"/>
<stop offset="1" stop-color="#E49100"/>
</linearGradient>
</defs>
</svg>
